<svg width="149" height="140" viewBox="0 0 149 140" fill="none" xmlns="http://www.w3.org/2000/svg">
<circle cx="79" cy="70" r="70" fill="white"/>
<mask id="path-2-outside-1_0_1" maskUnits="userSpaceOnUse" x="-1.6686" y="0.544991" width="97.3604" height="115.745" fill="black">
<rect fill="white" x="-1.6686" y="0.544991" width="97.3604" height="115.745"/>
<path d="M29.6437 113.22C27.6745 112.671 26.3028 111.879 25.5286 110.844C24.7751 109.887 24.2948 109.021 24.0877 108.249C23.508 106.085 23.4939 102.942 24.0455 98.8183C24.6744 94.6743 25.671 89.8935 27.0353 84.4758C28.4561 78.9601 30.106 73.2174 31.985 67.2476C29.0637 67.7819 26.5882 68.2796 24.5583 68.7407C22.5285 69.2017 20.7795 69.629 19.3113 70.0224L15.2544 71.1094C15.504 68.6407 16.558 66.7018 18.4167 65.2928C20.3319 63.7857 22.7577 62.6388 25.6941 61.852C27.0078 61.5 28.3808 61.2149 29.8131 60.9968C31.2455 60.7786 32.7268 60.5887 34.2571 60.4272C36.6038 53.4211 39.0795 46.5875 41.6842 39.9263C44.3455 33.1672 46.8737 27.1478 49.2688 21.868C51.7205 16.4902 53.8438 12.3599 55.6388 9.47708C57.3 6.71295 58.8647 5.13418 60.3329 4.74078C61.183 4.51302 62.2034 4.61228 63.3943 5.03858C64.6418 5.36689 66.0004 5.95532 67.4701 6.80384C66.863 7.62909 66.3036 9.55966 65.7919 12.5955C65.3368 15.5334 64.9521 19.1979 64.6379 23.5888C64.4009 27.9591 64.2674 32.7157 64.2375 37.8587C64.2076 43.0016 64.286 48.2398 64.4728 53.5732C64.7161 58.8087 65.0905 63.7605 65.5959 68.4287C66.1787 73.0763 66.9255 77.1001 67.8366 80.5001C68.6234 83.4365 69.5433 85.6333 70.5963 87.0904C71.7266 88.5268 73.0645 89.038 74.61 88.6239C76.6191 88.0855 78.526 86.0838 80.3306 82.6186C82.1353 79.1535 83.7576 74.0807 85.1977 67.4004L86.6674 68.2489C86.0056 75.052 84.3868 80.9106 81.8109 85.8248C79.3122 90.7182 76.1311 93.6825 72.2674 94.7178C69.0991 95.5667 66.4082 94.797 64.1946 92.4085C62.0376 89.9221 60.3275 86.322 59.0645 81.6083C58.4019 79.1355 57.8318 76.3895 57.3541 73.3703C56.9536 70.3303 56.638 67.1434 56.4073 63.8095C52.8623 64.1797 49.6188 64.5932 46.6769 65.0502C43.7915 65.4093 41.1096 65.7552 38.6313 66.0879C36.8008 73.7839 35.0993 81.6524 33.5269 89.6934C32.0318 97.7136 30.7374 105.556 29.6437 113.22ZM56.1316 59.5352C55.9242 54.1246 55.8996 48.6235 56.0578 43.032C56.1953 37.3633 56.4825 31.9443 56.9195 26.775C57.4338 21.5851 57.9874 17.0058 58.5805 13.037C56.5784 15.1471 54.5005 18.5198 52.3468 23.1552C50.2497 27.6926 48.1872 33.1317 46.1593 39.4727C44.1106 45.7363 42.1296 52.5616 40.2163 59.9485C42.9886 59.7854 45.7429 59.71 48.4793 59.7222C51.2722 59.6364 53.823 59.5741 56.1316 59.5352Z"/>
</mask>
<path d="M29.6437 113.22C27.6745 112.671 26.3028 111.879 25.5286 110.844C24.7751 109.887 24.2948 109.021 24.0877 108.249C23.508 106.085 23.4939 102.942 24.0455 98.8183C24.6744 94.6743 25.671 89.8935 27.0353 84.4758C28.4561 78.9601 30.106 73.2174 31.985 67.2476C29.0637 67.7819 26.5882 68.2796 24.5583 68.7407C22.5285 69.2017 20.7795 69.629 19.3113 70.0224L15.2544 71.1094C15.504 68.6407 16.558 66.7018 18.4167 65.2928C20.3319 63.7857 22.7577 62.6388 25.6941 61.852C27.0078 61.5 28.3808 61.2149 29.8131 60.9968C31.2455 60.7786 32.7268 60.5887 34.2571 60.4272C36.6038 53.4211 39.0795 46.5875 41.6842 39.9263C44.3455 33.1672 46.8737 27.1478 49.2688 21.868C51.7205 16.4902 53.8438 12.3599 55.6388 9.47708C57.3 6.71295 58.8647 5.13418 60.3329 4.74078C61.183 4.51302 62.2034 4.61228 63.3943 5.03858C64.6418 5.36689 66.0004 5.95532 67.4701 6.80384C66.863 7.62909 66.3036 9.55966 65.7919 12.5955C65.3368 15.5334 64.9521 19.1979 64.6379 23.5888C64.4009 27.9591 64.2674 32.7157 64.2375 37.8587C64.2076 43.0016 64.286 48.2398 64.4728 53.5732C64.7161 58.8087 65.0905 63.7605 65.5959 68.4287C66.1787 73.0763 66.9255 77.1001 67.8366 80.5001C68.6234 83.4365 69.5433 85.6333 70.5963 87.0904C71.7266 88.5268 73.0645 89.038 74.61 88.6239C76.6191 88.0855 78.526 86.0838 80.3306 82.6186C82.1353 79.1535 83.7576 74.0807 85.1977 67.4004L86.6674 68.2489C86.0056 75.052 84.3868 80.9106 81.8109 85.8248C79.3122 90.7182 76.1311 93.6825 72.2674 94.7178C69.0991 95.5667 66.4082 94.797 64.1946 92.4085C62.0376 89.9221 60.3275 86.322 59.0645 81.6083C58.4019 79.1355 57.8318 76.3895 57.3541 73.3703C56.9536 70.3303 56.638 67.1434 56.4073 63.8095C52.8623 64.1797 49.6188 64.5932 46.6769 65.0502C43.7915 65.4093 41.1096 65.7552 38.6313 66.0879C36.8008 73.7839 35.0993 81.6524 33.5269 89.6934C32.0318 97.7136 30.7374 105.556 29.6437 113.22ZM56.1316 59.5352C55.9242 54.1246 55.8996 48.6235 56.0578 43.032C56.1953 37.3633 56.4825 31.9443 56.9195 26.775C57.4338 21.5851 57.9874 17.0058 58.5805 13.037C56.5784 15.1471 54.5005 18.5198 52.3468 23.1552C50.2497 27.6926 48.1872 33.1317 46.1593 39.4727C44.1106 45.7363 42.1296 52.5616 40.2163 59.9485C42.9886 59.7854 45.7429 59.71 48.4793 59.7222C51.2722 59.6364 53.823 59.5741 56.1316 59.5352Z" fill="black"/>
<path d="M29.6437 113.22L29.3752 114.183L30.4728 114.489L30.6337 113.361L29.6437 113.22ZM25.5286 110.844L26.3293 110.245L26.322 110.235L26.3145 110.226L25.5286 110.844ZM24.0455 98.8183L23.0568 98.6682L23.0555 98.6769L23.0544 98.6857L24.0455 98.8183ZM27.0353 84.4758L26.0669 84.2263L26.0656 84.2316L27.0353 84.4758ZM31.985 67.2476L32.9388 67.5479L33.4369 65.9655L31.8051 66.264L31.985 67.2476ZM24.5583 68.7407L24.7798 69.7158L24.7798 69.7158L24.5583 68.7407ZM15.2544 71.1094L14.2595 71.0088L14.1138 72.4503L15.5132 72.0753L15.2544 71.1094ZM18.4167 65.2928L19.0208 66.0897L19.028 66.0842L19.0351 66.0786L18.4167 65.2928ZM29.8131 60.9968L29.9637 61.9854L29.9637 61.9854L29.8131 60.9968ZM34.2571 60.4272L34.3621 61.4216L35.0012 61.3542L35.2054 60.7448L34.2571 60.4272ZM41.6842 39.9263L40.7537 39.56L40.7529 39.5622L41.6842 39.9263ZM49.2688 21.868L48.3589 21.4532L48.3581 21.4549L49.2688 21.868ZM55.6388 9.47708L56.4877 10.0057L56.4919 9.99896L56.496 9.9922L55.6388 9.47708ZM63.3943 5.03858L63.0573 5.98008L63.098 5.99464L63.1398 6.00565L63.3943 5.03858ZM67.4701 6.80384L68.2756 7.39642L68.9377 6.49645L67.9701 5.93782L67.4701 6.80384ZM65.7919 12.5955L64.8057 12.4293L64.8037 12.4424L65.7919 12.5955ZM64.6379 23.5888L63.6404 23.5174L63.6398 23.526L63.6393 23.5347L64.6379 23.5888ZM64.2375 37.8587L65.2375 37.8645L65.2375 37.8645L64.2375 37.8587ZM64.4728 53.5732L63.4733 53.6082L63.4739 53.6197L64.4728 53.5732ZM65.5959 68.4287L64.6017 68.5364L64.6027 68.5448L64.6037 68.5531L65.5959 68.4287ZM70.5963 87.0904L69.7858 87.6762L69.7978 87.6927L69.8104 87.7088L70.5963 87.0904ZM80.3306 82.6186L79.4437 82.1567L79.4437 82.1567L80.3306 82.6186ZM85.1977 67.4004L85.6977 66.5344L84.5093 65.8482L84.2201 67.1897L85.1977 67.4004ZM86.6674 68.2489L87.6627 68.3457L87.725 67.7048L87.1674 67.3829L86.6674 68.2489ZM81.8109 85.8248L80.9251 85.3605L80.9203 85.37L81.8109 85.8248ZM64.1946 92.4085L63.4392 93.0638L63.45 93.0762L63.4612 93.0883L64.1946 92.4085ZM57.3541 73.3703L56.3626 73.5009L56.3643 73.5137L56.3663 73.5265L57.3541 73.3703ZM56.4073 63.8095L57.4049 63.7405L57.3334 62.7074L56.3035 62.8149L56.4073 63.8095ZM46.6769 65.0502L46.8003 66.0426L46.8154 66.0407L46.8304 66.0384L46.6769 65.0502ZM38.6313 66.0879L38.4982 65.0968L37.8174 65.1883L37.6584 65.8565L38.6313 66.0879ZM33.5269 89.6934L32.5455 89.5015L32.5438 89.5101L33.5269 89.6934ZM56.1316 59.5352L56.1485 60.5351L57.17 60.5179L57.1309 59.4969L56.1316 59.5352ZM56.0578 43.032L57.0574 43.0603L57.0575 43.0563L56.0578 43.032ZM56.9195 26.775L55.9244 26.6764L55.9237 26.6836L55.9231 26.6908L56.9195 26.775ZM58.5805 13.037L59.5695 13.1848L60.0382 10.0478L57.855 12.3487L58.5805 13.037ZM52.3468 23.1552L51.4399 22.7338L51.4391 22.7356L52.3468 23.1552ZM46.1593 39.4727L47.1097 39.7835L47.1117 39.7773L46.1593 39.4727ZM40.2163 59.9485L39.2482 59.6978L38.9038 61.0274L40.275 60.9468L40.2163 59.9485ZM48.4793 59.7222L48.4748 60.7222L48.4924 60.7223L48.51 60.7217L48.4793 59.7222ZM29.9123 112.257C28.0403 111.735 26.9139 111.027 26.3293 110.245L24.7279 111.443C25.6917 112.732 27.3087 113.607 29.3752 114.183L29.9123 112.257ZM26.3145 110.226C25.6052 109.324 25.2122 108.582 25.0537 107.99L23.1218 108.508C23.3773 109.461 23.945 110.449 24.7427 111.463L26.3145 110.226ZM25.0537 107.99C24.526 106.021 24.4902 103.036 25.0367 98.9509L23.0544 98.6857C22.4976 102.847 22.49 106.149 23.1218 108.508L25.0537 107.99ZM25.0342 98.9683C25.657 94.8644 26.6462 90.1161 28.005 84.72L26.0656 84.2316C24.6958 89.6708 23.6918 94.4842 23.0568 98.6682L25.0342 98.9683ZM28.0037 84.7252C29.4197 79.2281 31.0647 73.5024 32.9388 67.5479L31.0311 66.9474C29.1474 72.9323 27.4925 78.692 26.0669 84.2263L28.0037 84.7252ZM31.8051 66.264C28.8752 66.7998 26.3849 67.3003 24.3368 67.7655L24.7798 69.7158C26.7914 69.2589 29.2522 68.764 32.1649 68.2313L31.8051 66.264ZM24.3368 67.7655C22.2987 68.2285 20.5366 68.6588 19.0525 69.0565L19.5701 70.9883C21.0224 70.5992 22.7583 70.175 24.7798 69.7158L24.3368 67.7655ZM19.0525 69.0565L14.9956 70.1435L15.5132 72.0753L19.5701 70.9883L19.0525 69.0565ZM16.2493 71.21C16.473 68.9978 17.3988 67.3193 19.0208 66.0897L17.8126 64.4959C15.7172 66.0844 14.535 68.2836 14.2595 71.0088L16.2493 71.21ZM19.0351 66.0786C20.821 64.6733 23.116 63.5781 25.9529 62.8179L25.4353 60.8861C22.3994 61.6995 19.8428 62.8981 17.7983 64.5069L19.0351 66.0786ZM25.9529 62.8179C27.2287 62.4761 28.5655 62.1983 29.9637 61.9854L29.6626 60.0082C28.1961 60.2315 26.7868 60.5239 25.4353 60.8861L25.9529 62.8179ZM29.9637 61.9854C31.38 61.7697 32.8461 61.5817 34.3621 61.4216L34.1521 59.4327C32.6075 59.5958 31.1109 59.7876 29.6626 60.0082L29.9637 61.9854ZM35.2054 60.7448C37.5469 53.7538 40.017 46.9358 42.6155 40.2905L40.7529 39.5622C38.1419 46.2392 35.6606 53.0883 33.3089 60.1096L35.2054 60.7448ZM42.6147 40.2927C45.2712 33.5456 47.7928 27.5422 50.1795 22.2811L48.3581 21.4549C45.9545 26.7534 43.4198 32.7889 40.7537 39.56L42.6147 40.2927ZM50.1787 22.2828C52.6235 16.9201 54.7261 12.8348 56.4877 10.0057L54.79 8.94851C52.9615 11.885 50.8174 16.0603 48.3589 21.4532L50.1787 22.2828ZM56.496 9.9922C57.3021 8.65087 58.0615 7.6372 58.7685 6.92384C59.4802 6.20581 60.09 5.84116 60.5918 5.7067L60.0741 3.77485C59.1077 4.0338 58.2011 4.65523 57.348 5.51597C56.4903 6.38138 55.6368 7.53916 54.7817 8.96197L56.496 9.9922ZM60.5918 5.7067C61.1766 5.55001 61.9777 5.59362 63.0573 5.98008L63.7314 4.09708C62.4291 3.63094 61.1894 3.47602 60.0741 3.77485L60.5918 5.7067ZM63.1398 6.00565C64.2792 6.30552 65.5547 6.85267 66.9701 7.66987L67.9701 5.93782C66.4461 5.05796 65.0044 4.42827 63.6489 4.07151L63.1398 6.00565ZM66.6646 6.21127C66.2525 6.77144 65.9219 7.60128 65.6347 8.59239C65.3403 9.60841 65.0651 10.8912 64.8058 12.4293L66.778 12.7617C67.0304 11.264 67.2907 10.0636 67.5557 9.14901C67.8279 8.20956 68.0806 7.6615 68.2756 7.39642L66.6646 6.21127ZM64.8037 12.4424C64.3429 15.4169 63.9558 19.1108 63.6404 23.5174L65.6353 23.6602C65.9484 19.285 66.3307 15.6499 66.7801 12.7486L64.8037 12.4424ZM63.6393 23.5347C63.4014 27.9235 63.2675 32.6964 63.2375 37.8528L65.2375 37.8645C65.2674 32.7349 65.4004 27.9946 65.6364 23.643L63.6393 23.5347ZM63.2375 37.8528C63.2075 43.0099 63.2862 48.2617 63.4734 53.6082L65.4722 53.5382C65.2859 48.2179 65.2077 42.9934 65.2375 37.8645L63.2375 37.8528ZM63.4739 53.6197C63.718 58.8732 64.0939 63.8456 64.6017 68.5364L66.5901 68.3211C66.0871 63.6754 65.7142 58.7441 65.4717 53.5268L63.4739 53.6197ZM64.6037 68.5531C65.1904 73.2322 65.9447 77.3031 66.8707 80.759L68.8025 80.2413C67.9064 76.8971 67.1669 72.9203 66.5882 68.3043L64.6037 68.5531ZM66.8707 80.759C67.6703 83.7431 68.6289 86.0752 69.7858 87.6762L71.4068 86.5047C70.4578 85.1914 69.5765 83.13 68.8025 80.2413L66.8707 80.759ZM69.8104 87.7088C70.457 88.5305 71.212 89.1496 72.0905 89.4852C72.9791 89.8247 73.9175 89.8447 74.8688 89.5898L74.3511 87.6579C73.7569 87.8172 73.2537 87.7886 72.8043 87.6169C72.345 87.4414 71.8659 87.0868 71.3822 86.472L69.8104 87.7088ZM74.8688 89.5898C77.3074 88.9364 79.3865 86.5963 81.2175 83.0805L79.4437 82.1567C77.6654 85.5712 75.9308 87.2347 74.3511 87.6579L74.8688 89.5898ZM81.2175 83.0805C83.0832 79.4983 84.7281 74.324 86.1752 67.6111L84.2201 67.1897C82.7871 73.8374 81.1873 78.8087 79.4437 82.1567L81.2175 83.0805ZM84.6977 68.2664L86.1674 69.1149L87.1674 67.3829L85.6977 66.5344L84.6977 68.2664ZM85.6721 68.1521C85.02 74.8556 83.429 80.5838 80.9252 85.3605L82.6966 86.289C85.3445 81.2375 86.9912 75.2484 87.6627 68.3457L85.6721 68.1521ZM80.9203 85.37C78.5004 90.1092 75.5081 92.8142 72.0086 93.7519L72.5262 95.6837C76.754 94.5509 80.1241 91.3272 82.7015 86.2795L80.9203 85.37ZM72.0086 93.7519C70.5691 94.1376 69.2912 94.1428 68.148 93.8158C67.0053 93.4889 65.9313 92.8112 64.9281 91.7288L63.4612 93.0883C64.6716 94.3943 66.0498 95.2958 67.598 95.7386C69.1457 96.1814 70.7975 96.147 72.5262 95.6837L72.0086 93.7519ZM64.95 91.7532C62.9285 89.423 61.2716 85.9816 60.0304 81.3495L58.0986 81.8671C59.3835 86.6624 61.1467 90.4211 63.4392 93.0638L64.95 91.7532ZM60.0304 81.3495C59.3784 78.9162 58.815 76.2051 58.3418 73.214L56.3663 73.5265C56.8485 76.5739 57.4254 79.3548 58.0986 81.8671L60.0304 81.3495ZM58.3455 73.2397C57.948 70.2219 57.6344 67.0556 57.4049 63.7405L55.4097 63.8786C55.6417 67.2312 55.9593 70.4387 56.3626 73.5009L58.3455 73.2397ZM56.3035 62.8149C52.745 63.1865 49.4846 63.6021 46.5234 64.0621L46.8304 66.0384C49.753 65.5844 52.9796 65.1728 56.5111 64.8041L56.3035 62.8149ZM46.5534 64.0579C43.6653 64.4172 40.9802 64.7636 38.4982 65.0968L38.7644 67.079C41.239 66.7468 43.9176 66.4013 46.8003 66.0426L46.5534 64.0579ZM37.6584 65.8565C35.8247 73.5661 34.1204 81.4478 32.5455 89.5015L34.5083 89.8853C36.0782 81.8571 37.7769 74.0018 39.6042 66.3193L37.6584 65.8565ZM32.5438 89.5101C31.0462 97.5436 29.7495 105.4 28.6538 113.079L30.6337 113.361C31.7252 105.712 33.0173 97.8837 34.51 89.8767L32.5438 89.5101ZM57.1309 59.4969C56.9243 54.1092 56.8998 48.6303 57.0574 43.0603L55.0582 43.0037C54.8994 48.6167 54.924 54.14 55.1324 59.5735L57.1309 59.4969ZM57.0575 43.0563C57.1945 37.4057 57.4808 32.0068 57.916 26.8593L55.9231 26.6908C55.4842 31.8817 55.196 37.3208 55.0581 43.0078L57.0575 43.0563ZM57.9146 26.8736C58.4277 21.6956 58.9795 17.1332 59.5695 13.1848L57.5914 12.8893C56.9954 16.8783 56.4398 21.4746 55.9244 26.6764L57.9146 26.8736ZM57.855 12.3487C55.7424 14.5753 53.6102 18.0628 51.4399 22.7338L53.2537 23.5765C55.3908 18.9769 57.4143 15.7189 59.3059 13.7253L57.855 12.3487ZM51.4391 22.7356C49.3202 27.3203 47.2434 32.7999 45.2068 39.168L47.1117 39.7773C49.131 33.4636 51.1793 28.0649 53.2546 23.5747L51.4391 22.7356ZM45.2088 39.1618C43.1527 45.4481 41.166 52.2937 39.2482 59.6978L41.1844 60.1993C43.0932 52.8295 45.0685 46.0245 47.1097 39.7835L45.2088 39.1618ZM40.275 60.9468C43.0266 60.7849 45.7598 60.7101 48.4748 60.7222L48.4837 58.7222C45.726 58.7099 42.9506 58.7859 40.1576 58.9502L40.275 60.9468ZM48.51 60.7217C51.2992 60.636 53.8453 60.5738 56.1485 60.5351L56.1148 58.5354C53.8007 58.5743 51.2452 58.6367 48.4486 58.7227L48.51 60.7217Z" fill="black" mask="url(#path-2-outside-1_0_1)"/>
<path d="M86.44 138.44C84.44 138.44 82.56 137.88 80.8 136.76C79.04 135.64 78.16 134.2 78.16 132.44C78.16 131.56 78.36 130.48 78.76 129.2C79.16 128 79.52 126.88 79.84 125.84C82.4 118 84.8 110.68 87.04 103.88C89.28 97.08 91.52 90.48 93.76 84.08C96 77.68 98.36 71.28 100.84 64.88C103.4 58.48 106.24 51.8 109.36 44.84C106.32 45.4 103.6 46.24 101.2 47.36C98.88 48.4 97 49.36 95.56 50.24C94.12 51.04 93.16 51.44 92.68 51.44C92.36 51.44 91.88 51.28 91.24 50.96C90.68 50.56 90.16 50.12 89.68 49.64C89.2 49.08 88.96 48.6 88.96 48.2C91.04 47.32 93.48 46.36 96.28 45.32C99.16 44.28 102.24 43.4 105.52 42.68C108.8 41.96 112.12 41.6 115.48 41.6C119 41.6 122.56 42.08 126.16 43.04C129.84 44 133.2 45.48 136.24 47.48C139.28 49.4 141.72 51.8 143.56 54.68C145.4 57.56 146.32 60.92 146.32 64.76C146.32 68.92 145.4 72.52 143.56 75.56C141.72 78.52 139.28 81.04 136.24 83.12C133.2 85.12 129.92 86.76 126.4 88.04C122.88 89.24 119.36 90.2 115.84 90.92C112.4 91.56 109.32 92 106.6 92.24C103.88 92.4 101.88 92.48 100.6 92.48H99.4C97 100.72 94.68 108.84 92.44 116.84C90.28 124.84 88.28 132.04 86.44 138.44ZM99.88 90.56C104.28 90.32 108.72 89.6 113.2 88.4C117.76 87.2 121.92 85.48 125.68 83.24C129.44 80.92 132.48 78.08 134.8 74.72C137.12 71.28 138.28 67.28 138.28 62.72C138.28 58.4 137.24 54.88 135.16 52.16C133.16 49.44 130.48 47.44 127.12 46.16C123.84 44.8 120.32 44.12 116.56 44.12C113.6 49.96 110.72 56.96 107.92 65.12C105.12 73.28 102.44 81.76 99.88 90.56Z" fill="black"/>
</svg>
